<svg width="259" height="77" viewBox="0 0 259 77" fill="none" xmlns="http://www.w3.org/2000/svg">
<g filter="url(#filter0_d)">
<path d="M104.762 28.8L93.242 29.12L93.082 25.04L97.322 25.08L96.042 20.48H89.922L87.602 29.6L82.042 29.68L81.882 25.64L84.202 25.56L89.362 5.64L85.642 5.56L85.682 1.8L95.562 1.76L102.282 25L104.642 25.08L104.762 28.8ZM95.162 16.76L92.882 9.16L91.002 16.8L95.162 16.76ZM127.254 2.04L124.574 8.8C123.801 8.16 122.894 7.62667 121.854 7.2C120.841 6.77333 119.654 6.62666 118.294 6.76C117.254 6.86666 116.281 7.2 115.374 7.76C114.468 8.32 113.681 9.06667 113.014 10C112.374 10.9067 111.881 11.9867 111.534 13.24C111.214 14.4667 111.108 15.8133 111.214 17.28C111.348 18.7467 111.681 19.96 112.214 20.92C112.748 21.8533 113.374 22.5867 114.094 23.12C114.814 23.6533 115.561 24.0267 116.334 24.24C117.134 24.4533 117.841 24.56 118.454 24.56C119.628 24.5867 120.801 24.4 121.974 24C123.148 23.6 124.201 22.9467 125.134 22.04L127.174 25.64C126.214 26.7333 125.028 27.5467 123.614 28.08C122.201 28.5867 120.414 28.8933 118.254 29C117.108 29.0533 115.881 28.8933 114.574 28.52C113.268 28.1467 112.041 27.5067 110.894 26.6C109.748 25.6933 108.761 24.5067 107.934 23.04C107.108 21.5733 106.614 19.7733 106.454 17.64C106.241 15.0533 106.468 12.8133 107.134 10.92C107.828 9 108.748 7.4 109.894 6.12C111.041 4.84 112.321 3.88 113.734 3.24C115.148 2.57333 116.494 2.21333 117.774 2.16C118.734 2.13333 119.628 2.17333 120.454 2.28C121.308 2.36 121.988 2.45333 122.494 2.56L123.134 0.719999L127.254 2.04ZM152.835 4.24L150.995 4.32L150.715 27.88L145.595 28L135.635 10.16L135.715 25.56L139.875 25.64L139.835 28.96L128.995 29L128.955 25.04L131.395 25.08L131.035 4.84L128.875 4.76L128.835 1.64H135.435L146.435 20.32L146.515 4.4L143.035 4.48L142.915 1.2L152.835 1.32V4.24ZM177.101 25.96L177.061 29.56L169.821 29.64L169.941 18.72L161.781 18.68L161.821 24.8L164.661 24.84L164.741 28.92L154.421 29V24.96L156.741 24.92L156.901 5.68H154.861L154.821 1.84L164.381 1.76V5.24L161.581 5.32L161.541 14.52L169.981 14.4L170.061 4.48H167.381L167.301 0.919999L176.621 0.959999L176.701 4.88H174.981L174.901 26L177.101 25.96ZM35.1253 44.32L32.6853 44.36L27.3653 67.12L22.5653 67.28L19.3653 56.72L16.6853 68.4L8.16531 68.24L8.04531 65.24L11.1253 65.28L6.40531 44.72H4.24531L4.32531 40.84L10.2453 40.76L14.6053 60.28L17.2453 48.68L21.8053 48.64L24.5253 59.44L27.8853 45.12L24.5653 45.08L24.5253 40.92L34.9653 41L35.1253 44.32ZM56.2263 67.72L49.9863 67.84C50.0396 65.9733 50.0929 64.2533 50.1463 62.68C50.1996 61.1067 50.1729 59.7333 50.0663 58.56C49.9863 57.3867 49.7863 56.4533 49.4663 55.76C49.1729 55.0667 48.6929 54.6667 48.0263 54.56C47.5196 54.48 47.0263 54.5333 46.5463 54.72C46.0929 54.88 45.6663 55.12 45.2663 55.44C44.8929 55.76 44.5596 56.1333 44.2663 56.56C43.9729 56.9867 43.7196 57.4133 43.5063 57.84L43.3863 64.96L45.7463 64.88V68.56L36.9063 68.4L36.7063 64.96H38.9063L39.1063 44.32L37.0663 44.36V40.56L43.7463 40.52L43.6663 51.76C44.2529 51.12 45.0663 50.6 46.1063 50.2C47.1463 49.8 48.3329 49.7467 49.6663 50.04C50.9463 50.3067 51.9329 50.8667 52.6263 51.72C53.3196 52.5733 53.8129 53.6267 54.1063 54.88C54.4263 56.1333 54.5996 57.5467 54.6263 59.12C54.6796 60.6667 54.6929 62.28 54.6663 63.96L56.2263 64V67.72ZM74.8791 68.56L68.6391 68.72V67.2C67.8657 67.9467 66.8657 68.3733 65.6391 68.48C64.4391 68.6133 63.2524 68.48 62.0791 68.08C60.9324 67.68 59.9457 67.04 59.1191 66.16C58.2924 65.2533 57.8657 64.1467 57.8391 62.84C57.8124 60.9467 58.4124 59.4267 59.6391 58.28C60.8924 57.1333 62.4657 56.52 64.3591 56.44C65.2391 56.3867 66.0124 56.4667 66.6791 56.68C67.3724 56.8667 67.9191 57.1067 68.3191 57.4C68.3191 56.5733 68.0924 55.8533 67.6391 55.24C67.2124 54.6 66.6257 54.1733 65.8791 53.96C65.1591 53.7467 64.3191 53.7733 63.3591 54.04C62.4257 54.28 61.4391 54.84 60.3991 55.72L58.4791 52.72C58.9591 52.24 59.5724 51.7867 60.3191 51.36C61.0657 50.9333 61.8924 50.6133 62.7991 50.4C63.7324 50.1867 64.7057 50.12 65.7191 50.2C66.7591 50.28 67.7857 50.5867 68.7991 51.12C69.9191 51.7067 70.7457 52.4267 71.2791 53.28C71.8391 54.1067 72.2257 55.08 72.4391 56.2C72.6524 57.2933 72.7591 58.5467 72.7591 59.96C72.7857 61.3733 72.8124 62.96 72.8391 64.72L74.7191 64.68L74.8791 68.56ZM68.4391 63.8L68.3591 60.88C68.0391 60.6667 67.6257 60.48 67.1191 60.32C66.6391 60.1333 66.1057 60.0267 65.5191 60C64.4524 60 63.6524 60.2533 63.1191 60.76C62.5857 61.24 62.3324 61.8933 62.3591 62.72C62.3591 63.3067 62.5591 63.8267 62.9591 64.28C63.3591 64.7067 63.8524 65 64.4391 65.16C65.0524 65.32 65.7057 65.3067 66.3991 65.12C67.1191 64.9067 67.7991 64.4667 68.4391 63.8ZM92.5919 62.84C92.5652 63.9333 92.3785 64.8533 92.0319 65.6C91.6852 66.3467 91.2319 66.96 90.6719 67.44C90.1119 67.8933 89.4585 68.2267 88.7119 68.44C87.9652 68.6533 87.1785 68.76 86.3519 68.76C85.5252 68.76 84.6985 68.6133 83.8719 68.32C83.0719 68.0267 82.3385 67.5733 81.6719 66.96C81.0052 66.3467 80.4585 65.5733 80.0319 64.64C79.6319 63.68 79.4319 62.5333 79.4319 61.2L79.3519 52.2H76.5119L76.4719 48.12L79.5119 48.08L79.4319 40.8H83.6319L83.7119 48L90.3519 47.92L90.2319 51.36L83.7519 51.44L83.8719 60.76C83.8719 61.24 83.8985 61.72 83.9519 62.2C84.0319 62.6533 84.1652 63.0667 84.3519 63.44C84.5385 63.7867 84.8052 64.08 85.1519 64.32C85.5252 64.5333 85.9919 64.6533 86.5519 64.68C87.4052 64.7067 87.9919 64.5333 88.3119 64.16C88.6319 63.76 88.8052 63.36 88.8319 62.96C88.8852 62.6133 88.8452 62.3467 88.7119 62.16C88.6052 61.9733 88.4585 61.88 88.2719 61.88C88.1119 61.8533 87.9385 61.9333 87.7519 62.12C87.5919 62.28 87.4852 62.5333 87.4319 62.88L84.5919 61.64C84.6185 60.92 84.9119 60.2 85.4719 59.48C86.0319 58.76 87.0052 58.3733 88.3919 58.32C89.6719 58.2667 90.6985 58.6933 91.4719 59.6C92.2452 60.5067 92.6185 61.5867 92.5919 62.84ZM126.446 46.96L123.046 47L123.006 44.8L117.766 44.84L117.606 64.84H121.046L120.966 68.36L109.686 68.4L109.566 64.56H113.166L113.126 44.92L107.966 44.96L107.926 47.48L104.246 47.44L104.206 40.72L126.366 40.52L126.446 46.96ZM145.794 59.28C145.768 60.5333 145.554 61.72 145.154 62.84C144.754 63.9333 144.194 64.8933 143.474 65.72C142.754 66.52 141.888 67.1733 140.874 67.68C139.861 68.1867 138.714 68.4667 137.434 68.52C136.208 68.5733 135.048 68.4267 133.954 68.08C132.888 67.7333 131.941 67.2133 131.114 66.52C130.288 65.8267 129.608 64.9733 129.074 63.96C128.541 62.9467 128.208 61.8133 128.074 60.56C127.941 59.0933 128.074 57.76 128.474 56.56C128.901 55.3333 129.514 54.28 130.314 53.4C131.141 52.4933 132.114 51.7867 133.234 51.28C134.381 50.7467 135.608 50.4533 136.914 50.4C138.141 50.3467 139.301 50.56 140.394 51.04C141.488 51.52 142.434 52.1733 143.234 53C144.034 53.8267 144.661 54.7867 145.114 55.88C145.594 56.9733 145.821 58.1067 145.794 59.28ZM141.674 59.48C141.674 58.84 141.541 58.2133 141.274 57.6C141.008 56.96 140.648 56.4 140.194 55.92C139.768 55.4133 139.261 55.0133 138.674 54.72C138.114 54.4267 137.514 54.28 136.874 54.28C136.234 54.3067 135.621 54.4933 135.034 54.84C134.474 55.16 133.968 55.6 133.514 56.16C133.088 56.6933 132.754 57.32 132.514 58.04C132.301 58.7333 132.221 59.4533 132.274 60.2C132.381 61.6133 132.901 62.7067 133.834 63.48C134.768 64.2533 135.874 64.64 137.154 64.64C137.794 64.64 138.381 64.4933 138.914 64.2C139.474 63.9067 139.954 63.52 140.354 63.04C140.754 62.56 141.074 62.0133 141.314 61.4C141.554 60.76 141.674 60.12 141.674 59.48ZM178.289 41.04L175.609 47.8C174.836 47.16 173.929 46.6267 172.889 46.2C171.876 45.7733 170.689 45.6267 169.329 45.76C168.289 45.8667 167.316 46.2 166.409 46.76C165.503 47.32 164.716 48.0667 164.049 49C163.409 49.9067 162.916 50.9867 162.569 52.24C162.249 53.4667 162.143 54.8133 162.249 56.28C162.383 57.7467 162.716 58.96 163.249 59.92C163.783 60.8533 164.409 61.5867 165.129 62.12C165.849 62.6533 166.596 63.0267 167.369 63.24C168.169 63.4533 168.876 63.56 169.489 63.56C170.663 63.5867 171.836 63.4 173.009 63C174.183 62.6 175.236 61.9467 176.169 61.04L178.209 64.64C177.249 65.7333 176.063 66.5467 174.649 67.08C173.236 67.5867 171.449 67.8933 169.289 68C168.143 68.0533 166.916 67.8933 165.609 67.52C164.303 67.1467 163.076 66.5067 161.929 65.6C160.783 64.6933 159.796 63.5067 158.969 62.04C158.143 60.5733 157.649 58.7733 157.489 56.64C157.276 54.0533 157.503 51.8133 158.169 49.92C158.863 48 159.783 46.4 160.929 45.12C162.076 43.84 163.356 42.88 164.769 42.24C166.183 41.5733 167.529 41.2133 168.809 41.16C169.769 41.1333 170.663 41.1733 171.489 41.28C172.343 41.36 173.023 41.4533 173.529 41.56L174.169 39.72L178.289 41.04ZM196.91 68.56L190.67 68.72V67.2C189.897 67.9467 188.897 68.3733 187.67 68.48C186.47 68.6133 185.284 68.48 184.11 68.08C182.964 67.68 181.977 67.04 181.15 66.16C180.324 65.2533 179.897 64.1467 179.87 62.84C179.844 60.9467 180.444 59.4267 181.67 58.28C182.924 57.1333 184.497 56.52 186.39 56.44C187.27 56.3867 188.044 56.4667 188.71 56.68C189.404 56.8667 189.95 57.1067 190.35 57.4C190.35 56.5733 190.124 55.8533 189.67 55.24C189.244 54.6 188.657 54.1733 187.91 53.96C187.19 53.7467 186.35 53.7733 185.39 54.04C184.457 54.28 183.47 54.84 182.43 55.72L180.51 52.72C180.99 52.24 181.604 51.7867 182.35 51.36C183.097 50.9333 183.924 50.6133 184.83 50.4C185.764 50.1867 186.737 50.12 187.75 50.2C188.79 50.28 189.817 50.5867 190.83 51.12C191.95 51.7067 192.777 52.4267 193.31 53.28C193.87 54.1067 194.257 55.08 194.47 56.2C194.684 57.2933 194.79 58.5467 194.79 59.96C194.817 61.3733 194.844 62.96 194.87 64.72L196.75 64.68L196.91 68.56ZM190.47 63.8L190.39 60.88C190.07 60.6667 189.657 60.48 189.15 60.32C188.67 60.1333 188.137 60.0267 187.55 60C186.484 60 185.684 60.2533 185.15 60.76C184.617 61.24 184.364 61.8933 184.39 62.72C184.39 63.3067 184.59 63.8267 184.99 64.28C185.39 64.7067 185.884 65 186.47 65.16C187.084 65.32 187.737 65.3067 188.43 65.12C189.15 64.9067 189.83 64.4667 190.47 63.8ZM214.623 62.84C214.596 63.9333 214.41 64.8533 214.063 65.6C213.716 66.3467 213.263 66.96 212.703 67.44C212.143 67.8933 211.49 68.2267 210.743 68.44C209.996 68.6533 209.21 68.76 208.383 68.76C207.556 68.76 206.73 68.6133 205.903 68.32C205.103 68.0267 204.37 67.5733 203.703 66.96C203.036 66.3467 202.49 65.5733 202.063 64.64C201.663 63.68 201.463 62.5333 201.463 61.2L201.383 52.2H198.543L198.503 48.12L201.543 48.08L201.463 40.8H205.663L205.743 48L212.383 47.92L212.263 51.36L205.783 51.44L205.903 60.76C205.903 61.24 205.93 61.72 205.983 62.2C206.063 62.6533 206.196 63.0667 206.383 63.44C206.57 63.7867 206.836 64.08 207.183 64.32C207.556 64.5333 208.023 64.6533 208.583 64.68C209.436 64.7067 210.023 64.5333 210.343 64.16C210.663 63.76 210.836 63.36 210.863 62.96C210.916 62.6133 210.876 62.3467 210.743 62.16C210.636 61.9733 210.49 61.88 210.303 61.88C210.143 61.8533 209.97 61.9333 209.783 62.12C209.623 62.28 209.516 62.5333 209.463 62.88L206.623 61.64C206.65 60.92 206.943 60.2 207.503 59.48C208.063 58.76 209.036 58.3733 210.423 58.32C211.703 58.2667 212.73 58.6933 213.503 59.6C214.276 60.5067 214.65 61.5867 214.623 62.84ZM233.638 51.56L230.318 57.52C229.731 56.6133 228.918 55.92 227.878 55.44C226.864 54.96 225.878 54.7467 224.918 54.8C223.691 54.8533 222.691 55.3067 221.918 56.16C221.144 56.9867 220.771 58.12 220.798 59.56C220.798 61.0267 221.211 62.2 222.038 63.08C222.891 63.96 223.878 64.4267 224.998 64.48C225.851 64.5067 226.771 64.2933 227.758 63.84C228.771 63.3867 229.544 62.7733 230.078 62L232.278 64.6C231.184 65.88 230.011 66.8133 228.758 67.4C227.504 67.9867 226.224 68.28 224.918 68.28C223.771 68.28 222.664 68.0533 221.598 67.6C220.558 67.12 219.638 66.48 218.838 65.68C218.064 64.88 217.438 63.9733 216.958 62.96C216.504 61.92 216.264 60.84 216.238 59.72C216.211 58.4933 216.411 57.3467 216.838 56.28C217.264 55.2133 217.851 54.28 218.598 53.48C219.344 52.68 220.224 52.0533 221.238 51.6C222.251 51.12 223.344 50.8667 224.518 50.84C225.264 50.84 226.011 50.8933 226.758 51C227.531 51.08 228.251 51.3333 228.918 51.76L230.038 49.64L233.638 51.56ZM254.742 67.72L248.502 67.84C248.555 65.9733 248.609 64.2533 248.662 62.68C248.715 61.1067 248.689 59.7333 248.582 58.56C248.502 57.3867 248.302 56.4533 247.982 55.76C247.689 55.0667 247.209 54.6667 246.542 54.56C246.035 54.48 245.542 54.5333 245.062 54.72C244.609 54.88 244.182 55.12 243.782 55.44C243.409 55.76 243.075 56.1333 242.782 56.56C242.489 56.9867 242.235 57.4133 242.022 57.84L241.902 64.96L244.262 64.88V68.56L235.422 68.4L235.222 64.96H237.422L237.622 44.32L235.582 44.36V40.56L242.262 40.52L242.182 51.76C242.769 51.12 243.582 50.6 244.622 50.2C245.662 49.8 246.849 49.7467 248.182 50.04C249.462 50.3067 250.449 50.8667 251.142 51.72C251.835 52.5733 252.329 53.6267 252.622 54.88C252.942 56.1333 253.115 57.5467 253.142 59.12C253.195 60.6667 253.209 62.28 253.182 63.96L254.742 64V67.72Z" fill="#857D68"/>
</g>
<defs>
<filter id="filter0_d" x="0.2453" y="0.719971" width="258.497" height="76.04" filterUnits="userSpaceOnUse" color-interpolation-filters="sRGB">
<feFlood flood-opacity="0" result="BackgroundImageFix"/>
<feColorMatrix in="SourceAlpha" type="matrix" values="0 0 0 0 0 0 0 0 0 0 0 0 0 0 0 0 0 0 127 0"/>
<feOffset dy="4"/>
<feGaussianBlur stdDeviation="2"/>
<feColorMatrix type="matrix" values="0 0 0 0 0.996078 0 0 0 0 0.980392 0 0 0 0 0.890196 0 0 0 1 0"/>
<feBlend mode="normal" in2="BackgroundImageFix" result="effect1_dropShadow"/>
<feBlend mode="normal" in="SourceGraphic" in2="effect1_dropShadow" result="shape"/>
</filter>
</defs>
</svg>
